- 
http://www.Speed.Cd 
       
http://www.Speed.Cd      fast  and The Hottest Private Tracker on the net

(((--Submit for invite!!--)))

Please Seed back to make the speed Faster!!!

------------------nfo--------------------------
-[img]http://img849.imageshack.us/img849/1722/phineasferbthemovieacro.jpg[/img]


[color=blue][size=4][b]Phineas.and.Ferb.The.Movie.2011.DVDRip+Bonus.XVID.AC3.HQ.Hive-CM8[/b][/size][/color]


[b]Thx Hive

CM8 Doing It Right The First Time :D


Source: DVD-9


Encode:
here is nice HQ Version of the newest Disney Movie.
DVD contained 2 bonus movies, which are here included as seperate files.
If you want you can select or deselect them, whatever you need.
all for the kids :P
enjoy


Video: 720x400 @bitrate 2200 2pass
BonusVideos: 720x400 @bitrate 1800 2pass
Audio: English AC3 5.1 @384
Sample: yes included[/b]


[url]http://www.imdb.com/title/tt1825918/[/url]


General
Complete name                    : Phineas.and.Ferb.The.Movie.2011.DVDRip+Bonus.XVID.AC3.HQ.Hive-CM8.avi
Format                           : AVI
Format/Info                      : Audio Video Interleave
File size                        : 1.32 GiB
Duration                         : 1h 16mn
Overall bit rate                 : 2 464 Kbps
Writing application              : Nandub v1.0rc2
Writing library                  : Nandub build 1853/release

Video
ID                               : 0
Format                           : MPEG-4 Visual
Format profile                   : Advanced Simple@L5
Format settings, BVOP            : 1
Format settings, QPel            : Yes
Format settings, GMC             : No warppoints
Format settings, Matrix          : Default (H.263)
Muxing mode                      : Packed bitstream
Codec ID                         : XVID
Codec ID/Hint                    : XviD
Duration                         : 1h 16mn
Bit rate                         : 2 071 Kbps
Width                            : 720 pixels
Height                           : 400 pixels
Display aspect ratio             : 16:9
Frame rate                       : 23.976 fps
Color space                      : YUV
Chroma subsampling               : 4:2:0
Bit depth                        : 8 bits
Scan type                        : Progressive
Compression mode                 : Lossy
Bits/(Pixel*Frame)               : 0.300
Stream size                      : 1.11 GiB (84%)
Writing library                  : XviD 1.2.1 (UTC 2008-12-04)

Audio
ID                               : 1
Format                           : AC-3
Format/Info                      : Audio Coding 3
Mode extension                   : CM (complete main)
Codec ID                         : 2000
Duration                         : 1h 16mn
Bit rate mode                    : Constant
Bit rate                         : 384 Kbps
Channel(s)                       : 6 channels
Channel positions                : Front: L C R, Side: L R, LFE
Sampling rate                    : 48.0 KHz
Bit depth                        : 16 bits
Compression mode                 : Lossy
Stream size                      : 211 MiB (16%)
Alignment                        : Split accross interleaves
Interleave, duration             : 42 ms (1.00 video frame)
Interleave, preload duration     : 500 ms


Plot:
When Phineas, Ferb, and Perry follow Dr. Doofenshmirtz through his "Otherdimensionator",
they find themselves in an alternate universe where a second, truly evil Dr. Doof rules
over his Tristate Area with an army of iron-fisted robots.


Cast:
Dee Bradley Baker        ...    Perry the Platypus / Platyborg (voice)
Thomas Brodie-Sangster   ...    Ferb Fletcher / Alternate Ferb (voice)
Bobby Gaylor             ...    Buford Van Stomm (voice)
Kelly Hu                 ...    Stacy Hirano (voice)


[img]http://img263.imageshack.us/img263/7724/65718932.png[/img]
[img]http://img153.imageshack.us/img153/1097/phph.png[/img]
[img]http://img691.imageshack.us/img691/1620/phphph.png[/img]
[img]http://img707.imageshack.us/img707/774/phphphph.png[/img]
[img]http://img12.imageshack.us/img12/9628/phphhphphhphh.png[/img]
[img]http://img703.imageshack.us/img703/5508/phphphphhphh.png[/img]
[img]http://img153.imageshack.us/img153/8035/phphphphph.png[/img]
[img]http://img27.imageshack.us/img27/4973/phphphphphh.png[/img]



Greetz

ViSiON,SiC,SANTi,3LT0N,YanKeeS,MAGNET,THC,T0XiC,LKRG,FANTASIA-PLAY,FANTASIA-M,BHRG,FLAWL3SS,
D2U,WBZ,NOVA,Vik,Rapeseed,SAFC,goldadvance,MEMORY100,scumbag,KaN1vE,Unevano,Pinnz,Wayne
Mr Hive,cedrict wink,and all P2P groups
Great Work Guys :D

FYS

LOOKING FOR ANYTHING YOU WANT TO LOOK AND SOUND BETTER

CM8@hushmail.com